<svg width="32" height="32" viewBox="0 0 32 32" fill="none" xmlns="http://www.w3.org/2000/svg">
<path d="M25 4.03103C24.234 4.03103 23.484 4.32803 22.906 4.90603L13 14.781L12.781 15L12.719 15.313L12.031 18.813L11.719 20.281L13.188 19.969L16.688 19.281L17 19.219L17.219 19L27.094 9.09403C27.5079 8.67909 27.7897 8.15091 27.9038 7.57607C28.0179 7.00122 27.9593 6.40546 27.7354 5.86387C27.5114 5.32228 27.1322 4.85912 26.6454 4.53277C26.1586 4.20641 25.5861 4.03249 25 4.03103ZM25 5.96903C25.234 5.96903 25.465 6.08903 25.688 6.31203C26.133 6.75803 26.133 7.24203 25.688 7.68703L16 17.376L14.281 17.72L14.625 16.001L24.313 6.31303C24.535 6.09103 24.766 5.96903 25 5.96903ZM4 8.00003V28H24V14.812L22 16.812V26H6V10H15.188L17.188 8.00003H4Z" fill="#9E9E9E"/>
</svg>
