<svg width="32" height="32" viewBox="0 0 32 32" fill="none" xmlns="http://www.w3.org/2000/svg">
<path d="M17.3333 4C17.6732 4.00038 18 4.13051 18.2472 4.3638C18.4943 4.59709 18.643 4.91594 18.6629 5.25519C18.6828 5.59445 18.5724 5.92851 18.3543 6.18911C18.1362 6.44971 17.8268 6.6172 17.4893 6.65733L17.3333 6.66667H6.66667V25.3333H25.3333V14.6667C25.3337 14.3268 25.4638 14 25.6971 13.7528C25.9304 13.5057 26.2493 13.357 26.5885 13.3371C26.9278 13.3172 27.2618 13.4276 27.5224 13.6457C27.783 13.8638 27.9505 14.1732 27.9907 14.5107L28 14.6667V25.3333C28.0002 26.0061 27.7461 26.6541 27.2887 27.1474C26.8312 27.6407 26.2042 27.9429 25.5333 27.9933L25.3333 28H6.66667C5.9939 28.0002 5.34591 27.7461 4.8526 27.2887C4.35929 26.8312 4.05712 26.2042 4.00667 25.5333L4 25.3333V6.66667C3.99979 5.9939 4.25388 5.34591 4.71133 4.8526C5.16878 4.35929 5.79579 4.05712 6.46667 4.00667L6.66667 4H17.3333ZM25.6573 4.45733C25.8973 4.2182 26.2192 4.07937 26.5578 4.06903C26.8964 4.05869 27.2263 4.17762 27.4804 4.40167C27.7345 4.62571 27.8937 4.93807 27.9259 5.2753C27.958 5.61253 27.8605 5.94934 27.6533 6.21733L27.5427 6.344L14.3427 19.5427C14.1027 19.7818 13.7808 19.9206 13.4422 19.931C13.1036 19.9413 12.7737 19.8224 12.5196 19.5983C12.2655 19.3743 12.1063 19.0619 12.0741 18.7247C12.042 18.3875 12.1395 18.0507 12.3467 17.7827L12.4573 17.6573L25.6573 4.45733Z" fill="black"/>
</svg>
