<svg width="33" height="34" viewBox="0 0 33 34" fill="none" xmlns="http://www.w3.org/2000/svg">
<path d="M11.1525 22.5087C11.0236 22.3759 10.9512 22.1957 10.9512 22.0079C10.9512 21.8201 11.0236 21.6399 11.1525 21.5071L15.5277 16.9993L11.1525 12.4914C11.0272 12.3578 10.9579 12.1789 10.9595 11.9932C10.9611 11.8075 11.0334 11.6298 11.1608 11.4985C11.2883 11.3672 11.4607 11.2927 11.641 11.291C11.8213 11.2894 11.9949 11.3608 12.1246 11.4899L16.4998 15.9977L20.8751 11.4899C21.0048 11.3608 21.1784 11.2894 21.3587 11.291C21.5389 11.2927 21.7114 11.3672 21.8388 11.4985C21.9663 11.6298 22.0386 11.8075 22.0402 11.9932C22.0417 12.1789 21.9724 12.3578 21.8472 12.4914L17.472 16.9993L21.8472 21.5071C21.9724 21.6407 22.0417 21.8196 22.0402 22.0053C22.0386 22.1911 21.9663 22.3687 21.8388 22.5001C21.7114 22.6314 21.5389 22.7059 21.3587 22.7075C21.1784 22.7091 21.0048 22.6377 20.8751 22.5087L16.4998 18.0009L12.1246 22.5087C11.9957 22.6415 11.8208 22.7161 11.6385 22.7161C11.4562 22.7161 11.2814 22.6415 11.1525 22.5087Z" fill="black"/>
<path fill-rule="evenodd" clip-rule="evenodd" d="M16.5 31.1663C24.0941 31.1663 30.25 24.8239 30.25 16.9997C30.25 9.17543 24.0941 2.83301 16.5 2.83301C8.90588 2.83301 2.75 9.17543 2.75 16.9997C2.75 24.8239 8.90588 31.1663 16.5 31.1663ZM16.5 29.7497C23.3344 29.7497 28.875 24.0412 28.875 16.9997C28.875 9.95813 23.3344 4.24967 16.5 4.24967C9.66556 4.24967 4.125 9.95813 4.125 16.9997C4.125 24.0412 9.66556 29.7497 16.5 29.7497Z" fill="black"/>
</svg>
