<svg width="32" height="32" viewBox="0 0 32 32" fill="none" xmlns="http://www.w3.org/2000/svg">
<path d="M4.3665 20.3947C3.23317 18.9227 2.6665 18.1854 2.6665 16C2.6665 13.8134 3.23317 13.0787 4.3665 11.6054C6.62917 8.66671 10.4238 5.33337 15.9998 5.33337C21.5758 5.33337 25.3705 8.66671 27.6332 11.6054C28.7665 13.08 29.3332 13.8147 29.3332 16C29.3332 18.1867 28.7665 18.9214 27.6332 20.3947C25.3705 23.3334 21.5758 26.6667 15.9998 26.6667C10.4238 26.6667 6.62917 23.3334 4.3665 20.3947Z" stroke="#9E9E9E" stroke-width="1.5"/>
<path d="M20 16C20 17.0609 19.5786 18.0783 18.8284 18.8284C18.0783 19.5786 17.0609 20 16 20C14.9391 20 13.9217 19.5786 13.1716 18.8284C12.4214 18.0783 12 17.0609 12 16C12 14.9391 12.4214 13.9217 13.1716 13.1716C13.9217 12.4214 14.9391 12 16 12C17.0609 12 18.0783 12.4214 18.8284 13.1716C19.5786 13.9217 20 14.9391 20 16Z" stroke="#9E9E9E" stroke-width="1.5"/>
</svg>
