<svg width="33" height="34" viewBox="0 0 33 34" fill="none" xmlns="http://www.w3.org/2000/svg">
<path d="M11.1525 22.5097C11.0236 22.3768 10.9512 22.1967 10.9512 22.0089C10.9512 21.821 11.0236 21.6409 11.1525 21.5081L15.5277 17.0002L11.1525 12.4924C11.0272 12.3588 10.9579 12.1799 10.9595 11.9942C10.9611 11.8084 11.0334 11.6308 11.1608 11.4995C11.2883 11.3681 11.4607 11.2936 11.641 11.292C11.8213 11.2904 11.9949 11.3618 12.1246 11.4908L16.4998 15.9987L20.8751 11.4908C21.0048 11.3618 21.1784 11.2904 21.3587 11.292C21.5389 11.2936 21.7114 11.3681 21.8388 11.4995C21.9663 11.6308 22.0386 11.8084 22.0402 11.9942C22.0417 12.1799 21.9724 12.3588 21.8472 12.4924L17.472 17.0002L21.8472 21.5081C21.9724 21.6417 22.0417 21.8206 22.0402 22.0063C22.0386 22.192 21.9663 22.3697 21.8388 22.501C21.7114 22.6324 21.5389 22.7069 21.3587 22.7085C21.1784 22.7101 21.0048 22.6387 20.8751 22.5097L16.4998 18.0018L12.1246 22.5097C11.9957 22.6425 11.8208 22.7171 11.6385 22.7171C11.4562 22.7171 11.2814 22.6425 11.1525 22.5097Z" fill="black"/>
<path fill-rule="evenodd" clip-rule="evenodd" d="M16.5 31.1668C24.0941 31.1668 30.25 24.8244 30.25 17.0002C30.25 9.17591 24.0941 2.8335 16.5 2.8335C8.90588 2.8335 2.75 9.17591 2.75 17.0002C2.75 24.8244 8.90588 31.1668 16.5 31.1668ZM16.5 29.7502C23.3344 29.7502 28.875 24.0417 28.875 17.0002C28.875 9.95862 23.3344 4.25016 16.5 4.25016C9.66556 4.25016 4.125 9.95862 4.125 17.0002C4.125 24.0417 9.66556 29.7502 16.5 29.7502Z" fill="black"/>
</svg>
