<svg width="24" height="24" viewBox="0 0 24 24" fill="none" xmlns="http://www.w3.org/2000/svg">
<path d="M13.4702 7.52995C13.6108 7.6704 13.8014 7.74929 14.0002 7.74929C14.1989 7.74929 14.3895 7.6704 14.5302 7.52995L15.2502 6.80995V17C15.2502 17.1989 15.3292 17.3896 15.4698 17.5303C15.6105 17.6709 15.8012 17.75 16.0002 17.75C16.1991 17.75 16.3898 17.6709 16.5305 17.5303C16.6711 17.3896 16.7502 17.1989 16.7502 17V6.80995L17.4702 7.52995C17.5388 7.60364 17.6216 7.66274 17.7136 7.70373C17.8056 7.74472 17.9049 7.76677 18.0056 7.76854C18.1063 7.77032 18.2064 7.75179 18.2998 7.71407C18.3931 7.67635 18.478 7.62021 18.5492 7.54899C18.6204 7.47777 18.6766 7.39294 18.7143 7.29955C18.752 7.20616 18.7705 7.10613 18.7687 7.00543C18.767 6.90473 18.7449 6.80541 18.7039 6.71341C18.6629 6.62141 18.6038 6.53861 18.5302 6.46995L16.5302 4.46995C16.3895 4.3295 16.1989 4.25061 16.0002 4.25061C15.8014 4.25061 15.6108 4.3295 15.4702 4.46995L13.4702 6.46995C13.3297 6.61058 13.2508 6.8012 13.2508 6.99995C13.2508 7.1987 13.3297 7.38933 13.4702 7.52995ZM8.75015 17.19L9.47015 16.4699C9.53882 16.3963 9.62162 16.3372 9.71362 16.2962C9.80561 16.2552 9.90493 16.2331 10.0056 16.2314C10.1063 16.2296 10.2064 16.2481 10.2998 16.2858C10.3931 16.3235 10.478 16.3797 10.5492 16.4509C10.6204 16.5221 10.6766 16.607 10.7143 16.7004C10.752 16.7937 10.7705 16.8938 10.7687 16.9945C10.767 17.0952 10.7449 17.1945 10.7039 17.2865C10.6629 17.3785 10.6038 17.4613 10.5302 17.53L8.53015 19.53C8.38953 19.6704 8.1989 19.7493 8.00015 19.7493C7.8014 19.7493 7.61078 19.6704 7.47015 19.53L5.47015 17.53C5.39647 17.4613 5.33736 17.3785 5.29637 17.2865C5.25538 17.1945 5.23334 17.0952 5.23156 16.9945C5.22979 16.8938 5.24831 16.7937 5.28603 16.7004C5.32375 16.607 5.3799 16.5221 5.45112 16.4509C5.52233 16.3797 5.60717 16.3235 5.70056 16.2858C5.79394 16.2481 5.89397 16.2296 5.99468 16.2314C6.09538 16.2331 6.19469 16.2552 6.28669 16.2962C6.37869 16.3372 6.46149 16.3963 6.53015 16.4699L7.25015 17.19V6.99995C7.25015 6.80104 7.32917 6.61027 7.46982 6.46962C7.61048 6.32897 7.80124 6.24995 8.00015 6.24995C8.19907 6.24995 8.38983 6.32897 8.53048 6.46962C8.67114 6.61027 8.75015 6.80104 8.75015 6.99995V17.19Z" fill="black"/>
</svg>
